<svg width="70" height="118" viewBox="0 0 70 118" fill="none" xmlns="http://www.w3.org/2000/svg">
<mask id="path-1-inside-1_14527_44548" fill="white">
<path d="M58.1 44.0125L39.0833 24.9958C36.8375 22.7499 33.1625 22.7499 30.9167 24.9958L11.9 44.0125"/>
</mask>
<path d="M54.5645 47.548C56.5171 49.5006 59.6829 49.5006 61.6355 47.548C63.5881 45.5954 63.5881 42.4295 61.6355 40.4769L54.5645 47.548ZM8.36446 40.4769C6.41184 42.4295 6.41184 45.5954 8.36446 47.548C10.3171 49.5006 13.4829 49.5006 15.4355 47.548L8.36446 40.4769ZM61.6355 40.4769L42.6189 21.4602L35.5478 28.5313L54.5645 47.548L61.6355 40.4769ZM42.6189 21.4602C38.4204 17.2618 31.5796 17.2618 27.3811 21.4602L34.4522 28.5313C34.7454 28.2381 35.2546 28.2381 35.5478 28.5313L42.6189 21.4602ZM27.3811 21.4602L8.36446 40.4769L15.4355 47.548L34.4522 28.5313L27.3811 21.4602Z" fill="#892CDC" mask="url(#path-1-inside-1_14527_44548)"/>
<g opacity="0.8">
<mask id="path-3-inside-2_14527_44548" fill="white">
<path d="M58.1 60.0125L39.0833 40.9958C36.8375 38.7499 33.1625 38.7499 30.9167 40.9958L11.9 60.0125"/>
</mask>
<path d="M54.5645 63.548C56.5171 65.5006 59.6829 65.5006 61.6355 63.548C63.5881 61.5954 63.5881 58.4295 61.6355 56.4769L54.5645 63.548ZM8.36446 56.4769C6.41184 58.4295 6.41184 61.5954 8.36446 63.548C10.3171 65.5006 13.4829 65.5006 15.4355 63.548L8.36446 56.4769ZM61.6355 56.4769L42.6189 37.4602L35.5478 44.5313L54.5645 63.548L61.6355 56.4769ZM42.6189 37.4602C38.4204 33.2618 31.5796 33.2618 27.3811 37.4602L34.4522 44.5313C34.7454 44.2381 35.2546 44.2381 35.5478 44.5313L42.6189 37.4602ZM27.3811 37.4602L8.36446 56.4769L15.4355 63.548L34.4522 44.5313L27.3811 37.4602Z" fill="#892CDC" mask="url(#path-3-inside-2_14527_44548)"/>
</g>
<g opacity="0.6">
<mask id="path-5-inside-3_14527_44548" fill="white">
<path d="M58.1 76.0125L39.0833 56.9958C36.8375 54.7499 33.1625 54.7499 30.9167 56.9958L11.9 76.0125"/>
</mask>
<path d="M54.5645 79.548C56.5171 81.5006 59.6829 81.5006 61.6355 79.548C63.5881 77.5954 63.5881 74.4295 61.6355 72.4769L54.5645 79.548ZM8.36446 72.4769C6.41184 74.4295 6.41184 77.5954 8.36446 79.548C10.3171 81.5006 13.4829 81.5006 15.4355 79.548L8.36446 72.4769ZM61.6355 72.4769L42.6189 53.4602L35.5478 60.5313L54.5645 79.548L61.6355 72.4769ZM42.6189 53.4602C38.4204 49.2618 31.5796 49.2618 27.3811 53.4602L34.4522 60.5313C34.7454 60.2381 35.2546 60.2381 35.5478 60.5313L42.6189 53.4602ZM27.3811 53.4602L8.36446 72.4769L15.4355 79.548L34.4522 60.5313L27.3811 53.4602Z" fill="#892CDC" mask="url(#path-5-inside-3_14527_44548)"/>
</g>
<g opacity="0.4">
<mask id="path-7-inside-4_14527_44548" fill="white">
<path d="M58.1 92.0125L39.0833 72.9958C36.8375 70.7499 33.1625 70.7499 30.9167 72.9958L11.9 92.0125"/>
</mask>
<path d="M54.5645 95.548C56.5171 97.5006 59.6829 97.5006 61.6355 95.548C63.5881 93.5954 63.5881 90.4295 61.6355 88.4769L54.5645 95.548ZM8.36446 88.4769C6.41184 90.4295 6.41184 93.5954 8.36446 95.548C10.3171 97.5006 13.4829 97.5006 15.4355 95.548L8.36446 88.4769ZM61.6355 88.4769L42.6189 69.4602L35.5478 76.5313L54.5645 95.548L61.6355 88.4769ZM42.6189 69.4602C38.4204 65.2618 31.5796 65.2618 27.3811 69.4602L34.4522 76.5313C34.7454 76.2381 35.2546 76.2381 35.5478 76.5313L42.6189 69.4602ZM27.3811 69.4602L8.36446 88.4769L15.4355 95.548L34.4522 76.5313L27.3811 69.4602Z" fill="#892CDC" mask="url(#path-7-inside-4_14527_44548)"/>
</g>
</svg>
