<svg id="Layer_1" data-name="Layer 1" xmlns="http://www.w3.org/2000/svg" xmlns:xlink="http://www.w3.org/1999/xlink" viewBox="0 0 1000 1000"><defs><style>.cls-1{fill:url(#linear-gradient);}.cls-2{fill:url(#linear-gradient-2);}.cls-3{fill:url(#linear-gradient-3);}.cls-4{fill:url(#linear-gradient-4);}</style><linearGradient id="linear-gradient" x1="596.1501" y1="450.60627" x2="461.16524" y2="547.56723" gradientUnits="userSpaceOnUse"><stop offset="0" stop-color="#ff0096"/><stop offset="0.31285" stop-color="#950058"/><stop offset="0.68715" stop-color="#ab14b3"/><stop offset="1" stop-color="#671787"/></linearGradient><linearGradient id="linear-gradient-2" x1="339.98975" y1="390.19438" x2="461.53111" y2="579.15679" gradientUnits="userSpaceOnUse"><stop offset="0" stop-color="#671787"/><stop offset="0.31285" stop-color="#ab14b3"/><stop offset="0.68715" stop-color="#950058"/><stop offset="1" stop-color="#ff0096"/></linearGradient><linearGradient id="linear-gradient-3" x1="531.63086" y1="408.76358" x2="500.0311" y2="552.42546" xlink:href="#linear-gradient"/><linearGradient id="linear-gradient-4" x1="411.61421" y1="402.9395" x2="639.12392" y2="593.69277" xlink:href="#linear-gradient"/></defs><path class="cls-1" d="M527.36307,580.67548A80.67621,80.67621,0,1,1,585.30222,443.895a11.82985,11.82985,0,0,1-16.98974,16.466,57.015,57.015,0,1,0,0,79.28029,11.82985,11.82985,0,0,1,16.98974,16.466A80.0788,80.0788,0,0,1,527.36307,580.67548Z"/><path class="cls-2" d="M376.25765,616.8268a53.8116,53.8116,0,0,1-53.61855-53.70327V436.88658a53.61855,53.61855,0,0,1,80.42782-46.433L512.39115,453.5721h0a53.61829,53.61829,0,0,1,0,92.86976L403.06692,609.55648A53.4465,53.4465,0,0,1,376.25765,616.8268Zm0-209.94566a30.066,30.066,0,0,0-29.95923,30.00544V563.12353a29.95923,29.95923,0,0,0,44.93884,25.94669L500.56149,525.9556a29.96471,29.96471,0,0,0,0-51.89724L391.23726,410.93988A29.898,29.898,0,0,0,376.25765,406.88114Z"/><path class="cls-3" d="M585.01052,460.6465a11.832,11.832,0,0,1-16.71922-.31528A56.59809,56.59809,0,0,0,527.36066,442.981a57.66221,57.66221,0,0,0-44.24281,21.05666,57.0015,57.0015,0,0,0,0,71.9243l-20.584,11.9086a80.21005,80.21005,0,0,1,0-95.7415,80.50988,80.50988,0,0,1,122.79192-8.20172A11.832,11.832,0,0,1,585.01052,460.6465Z"/><path class="cls-4" d="M677.3609,499.99976C677.3609,582.72844,610.08934,650,527.36066,650A149.887,149.887,0,0,1,402.28184,417.35l20.50455,11.82966a126.39031,126.39031,0,0,0,104.57427,197.161c69.6374,0,126.34092-56.70352,126.34092-126.34092S596.99806,373.65932,527.36066,373.65932A125.88972,125.88972,0,0,0,438.0861,410.7252l-21.05666-12.22388A149.5604,149.5604,0,0,1,527.36066,350C610.08934,350,677.3609,417.27108,677.3609,499.99976Z"/></svg>