<svg id="Layer_1" data-name="Layer 1" xmlns="http://www.w3.org/2000/svg" xmlns:xlink="http://www.w3.org/1999/xlink" viewBox="0 0 1000 1000"><defs><style>.cls-1{fill:url(#linear-gradient);}.cls-2{fill:url(#linear-gradient-2);}.cls-3{fill:url(#linear-gradient-3);}.cls-4{fill:url(#linear-gradient-4);}.cls-5{fill:#33014a;}</style><linearGradient id="linear-gradient" x1="377.49033" y1="476.94959" x2="314.4974" y2="522.19804" gradientUnits="userSpaceOnUse"><stop offset="0" stop-color="#ff0096"/><stop offset="0.31285" stop-color="#950058"/><stop offset="0.68715" stop-color="#ab14b3"/><stop offset="1" stop-color="#671787"/></linearGradient><linearGradient id="linear-gradient-2" x1="257.94884" y1="448.75738" x2="314.66814" y2="536.93984" gradientUnits="userSpaceOnUse"><stop offset="0" stop-color="#671787"/><stop offset="0.31285" stop-color="#ab14b3"/><stop offset="0.68715" stop-color="#950058"/><stop offset="1" stop-color="#ff0096"/></linearGradient><linearGradient id="linear-gradient-3" x1="347.38136" y1="457.423" x2="332.6348" y2="524.46522" xlink:href="#linear-gradient"/><linearGradient id="linear-gradient-4" x1="291.37358" y1="454.7051" x2="397.54478" y2="543.72329" xlink:href="#linear-gradient"/></defs><path class="cls-1" d="M345.38972,537.64856A37.6489,37.6489,0,1,1,372.428,473.81768a5.5206,5.5206,0,0,1-7.92855,7.68415,26.607,26.607,0,1,0,0,36.99746,5.5206,5.5206,0,0,1,7.92855,7.68415A37.3701,37.3701,0,0,1,345.38972,537.64856Z"/><path class="cls-2" d="M274.87385,554.51917a25.11209,25.11209,0,0,1-25.022-25.06152V470.54707a25.022,25.022,0,0,1,37.533-21.66871l51.018,29.45529h0a25.02187,25.02187,0,0,1,0,43.33922l-51.018,29.45349A24.94172,24.94172,0,0,1,274.87385,554.51917Zm0-97.97464a14.0308,14.0308,0,0,0-13.981,14.00254v58.91058a13.981,13.981,0,0,0,20.97146,12.10845l51.018-29.45349a13.98354,13.98354,0,0,0,0-24.21871l-51.018-29.45529A13.9524,13.9524,0,0,0,274.87385,456.54453Z"/><path class="cls-3" d="M372.29186,481.635a5.5216,5.5216,0,0,1-7.8023-.14713,26.41246,26.41246,0,0,0-19.101-8.09679,26.909,26.909,0,0,0-20.64664,9.82644,26.60071,26.60071,0,0,0,0,33.56467l-9.60586,5.55735a37.43136,37.43136,0,0,1,0-44.67936,37.5713,37.5713,0,0,1,57.3029-3.82748A5.5216,5.5216,0,0,1,372.29186,481.635Z"/><path class="cls-4" d="M415.38871,499.99989A70.00015,70.00015,0,1,1,287.01848,461.43l9.56879,5.52051a59.251,59.251,0,1,0,7.13986-8.61209l-9.82644-5.70448a69.96331,69.96331,0,0,1,121.488,47.36594Z"/><path class="cls-5" d="M522.65126,508.65407a32.57306,32.57306,0,0,1-6.44286,16.39409A35.82987,35.82987,0,0,1,501.97822,536.058,48.89546,48.89546,0,0,1,481.88231,540q-12.50151,0-21.87563-4.71151a35.206,35.206,0,0,1-14.56656-13.1732,40.00669,40.00669,0,0,1,0-39.42288,35.22767,35.22767,0,0,1,14.56656-13.17321q9.37572-4.70963,21.87563-4.71151a48.89567,48.89567,0,0,1,20.09591,3.94256,36.03163,36.03163,0,0,1,14.23018,10.96146,32.40155,32.40155,0,0,1,6.44286,16.44246H504.38234a18.06588,18.06588,0,0,0-3.89473-8.36551,18.96761,18.96761,0,0,0-7.69167-5.33645,29.89832,29.89832,0,0,0-11.01036-1.87536,27.04808,27.04808,0,0,0-12.40317,2.64431,18.7323,18.7323,0,0,0-7.98077,7.54819,25.66267,25.66267,0,0,0,0,23.269,18.72273,18.72273,0,0,0,7.98077,7.54819,27.02059,27.02059,0,0,0,12.40317,2.64432,30.59657,30.59657,0,0,0,11.01036-1.827,18.56907,18.56907,0,0,0,7.69167-5.28863,18.11624,18.11624,0,0,0,3.89473-8.46115Z"/><path class="cls-5" d="M540.342,477.88471a11.7114,11.7114,0,0,1-7.69274-2.45194,8.60984,8.60984,0,0,1,0-13.02865A11.87161,11.87161,0,0,1,540.342,460a11.63247,11.63247,0,0,1,7.69167,2.40412,8.79589,8.79589,0,0,1,0,13.02865A11.47663,11.47663,0,0,1,540.342,477.88471Zm-8.94262,5.00007,8.8459,1.827,8.94263-1.827v55.57678H531.39936Z"/><path class="cls-5" d="M605.63249,482.88357v15.385a50.84293,50.84293,0,0,0-5.15026-.86937,42.79556,42.79556,0,0,0-4.65508-.28614,18.07914,18.07914,0,0,0-8.31984,1.88187,13.5266,13.5266,0,0,0-5.86574,5.90967,22.14786,22.14786,0,0,0-2.168,10.4767v23.07749h-17.8831V501.92218l-3.45544-18.26825h18.07009l2.43206,14.68061a31.81749,31.81749,0,0,1,3.71983-7.61543,20.27881,20.27881,0,0,1,6.69085-6.29488,18.94588,18.94588,0,0,1,9.6624-2.311,31.97175,31.97175,0,0,1,3.45572.19808A27.124,27.124,0,0,1,605.63249,482.88357Z"/><path class="cls-5" d="M675.24439,515.673a23.2548,23.2548,0,0,1-5.33591,12.69227,30.78664,30.78664,0,0,1-11.73149,8.55788A40.43933,40.43933,0,0,1,642.07145,540a39.91172,39.91172,0,0,1-17.5005-3.654,28.33083,28.33083,0,0,1-11.82606-10.192,29.04618,29.04618,0,0,1,0-30.19224,28.35466,28.35466,0,0,1,11.82606-10.1925,39.91933,39.91933,0,0,1,17.5005-3.654,40.43933,40.43933,0,0,1,16.10554,3.07688,31.05175,31.05175,0,0,1,11.73149,8.51006,23.1117,23.1117,0,0,1,5.33591,12.74009H657.45586a12.13973,12.13973,0,0,0-5.24026-8.077,17.87773,17.87773,0,0,0-10.14415-2.78832,17.57844,17.57844,0,0,0-8.22149,1.827,12.89881,12.89881,0,0,0-5.43264,5.28809,19.1606,19.1606,0,0,0,0,16.731,12.8939,12.8939,0,0,0,5.43264,5.28863,17.56518,17.56518,0,0,0,8.22149,1.82646,17.16318,17.16318,0,0,0,10.19251-2.93233,12.594,12.594,0,0,0,5.1919-7.93294Z"/><path class="cls-5" d="M715.43622,540a42.38239,42.38239,0,0,1-18.17327-3.654,28.78059,28.78059,0,0,1-12.11515-10.192,28.583,28.583,0,0,1,0-30.2406,28.87206,28.87206,0,0,1,12.16352-10.14414,47.01931,47.01931,0,0,1,36.34653,0,28.88514,28.88514,0,0,1,12.16352,10.14414,28.66673,28.66673,0,0,1,0,30.28843A28.87357,28.87357,0,0,1,733.65785,536.346,42.7085,42.7085,0,0,1,715.43622,540Zm0-13.46176a19.72973,19.72973,0,0,0,8.991-1.87482,13.2506,13.2506,0,0,0,5.67229-5.33645,18.33238,18.33238,0,0,0,0-16.53865,13.25379,13.25379,0,0,0-5.67229-5.33645,22.14847,22.14847,0,0,0-17.83689,0,13.48633,13.48633,0,0,0-5.769,5.33645,17.94114,17.94114,0,0,0,0,16.53865,13.48306,13.48306,0,0,0,5.769,5.33645A19.55792,19.55792,0,0,0,715.43622,526.53824Z"/></svg>