<svg width="92" height="37" viewBox="0 0 92 37" fill="none" xmlns="http://www.w3.org/2000/svg">
<path fill-rule="evenodd" clip-rule="evenodd" d="M17.6906 0.0653669C19.9921 0.276723 22.2144 0.996178 24.2139 2.16484C24.9276 2.58202 25.613 3.05643 26.2635 3.5854L21.729 9.65448C20.3777 8.55554 18.7507 7.88749 17.0439 7.73075C15.3371 7.57401 13.6232 7.93526 12.1087 8.77101C10.5941 9.60677 9.34327 10.8814 8.50686 12.4415C7.67044 14.0016 7.28403 15.7806 7.39416 17.5645C7.50429 19.3484 8.10625 21.061 9.12759 22.4962C10.1489 23.9315 11.5461 25.0282 13.1509 25.6544C14.7558 26.2805 16.4999 26.4094 18.1733 26.0255C19.2334 25.7823 20.2365 25.34 21.1357 24.7253C21.656 24.3697 22.1415 23.9564 22.5832 23.4906L30.4696 33.5541C30.468 33.5546 30.4662 33.5552 30.4641 33.556C30.4664 33.5555 30.4683 33.555 30.47 33.5546L32 35.507C31.9119 35.6 31.8161 35.6812 31.7133 35.7516C31.1005 36.171 30.2368 36.2047 29.2394 36.0286C28.0316 35.8153 26.6278 35.2942 25.2366 34.7778C23.1463 34.002 21.0843 33.2366 19.7572 33.541C16.6952 34.2434 13.5039 34.0076 10.5674 32.8619C7.63083 31.7161 5.07428 29.7094 3.20545 27.0832C1.33661 24.4569 0.235147 21.3232 0.0336371 18.0591C-0.167872 14.795 0.539164 11.5397 2.06964 8.68506C3.60011 5.83042 5.88878 3.49809 8.66017 1.96883C11.4316 0.439575 14.5675 -0.221436 17.6906 0.0653669ZM17.4755 2.61533C19.3041 2.78326 21.0738 3.32894 22.6848 4.2114L21.1372 6.28282C19.9235 5.68046 18.6109 5.30493 17.259 5.18079C15.0811 4.98078 12.8942 5.44175 10.9615 6.5082C9.02881 7.57466 7.43276 9.20114 6.36545 11.1919C5.29815 13.1826 4.80509 15.4528 4.94561 17.729C5.08614 20.0053 5.85427 22.1907 7.15753 24.0221C8.4608 25.8536 10.2437 27.253 12.2915 28.052C14.3393 28.851 16.5649 29.0155 18.7002 28.5256C19.945 28.2401 21.1282 27.7393 22.2032 27.05L26.496 32.5278C26.3751 32.4831 26.2521 32.4374 26.1273 32.3911C25.2221 32.055 24.2282 31.686 23.325 31.4172C22.1845 31.0778 20.6481 30.7157 19.2303 31.0409C16.6303 31.6374 13.9203 31.4371 11.4268 30.4642C8.93329 29.4913 6.76241 27.7873 5.1755 25.5573C3.5886 23.3272 2.6533 20.6662 2.48219 17.8946C2.31108 15.1229 2.91145 12.3587 4.21104 9.93467C5.51063 7.51068 7.45404 5.5302 9.80734 4.23164C12.1606 2.93309 14.8235 2.37179 17.4755 2.61533Z" fill="#892CDC"/>
<path d="M19.8647 16.8978L13.2709 12.9262V20.8695L19.8647 16.8978Z" fill="#892CDC"/>
<path d="M32.528 18.4325C32.528 17.3231 32.768 16.3365 33.248 15.4725C33.728 14.5978 34.3947 13.9205 35.248 13.4405C36.112 12.9498 37.088 12.7045 38.176 12.7045C39.5093 12.7045 40.6507 13.0565 41.6 13.7605C42.5493 14.4645 43.184 15.4245 43.504 16.6405H40.496C40.272 16.1711 39.952 15.8138 39.536 15.5685C39.1307 15.3231 38.6667 15.2005 38.144 15.2005C37.3013 15.2005 36.6187 15.4938 36.096 16.0805C35.5733 16.6671 35.312 17.4511 35.312 18.4325C35.312 19.4138 35.5733 20.1978 36.096 20.7845C36.6187 21.3711 37.3013 21.6645 38.144 21.6645C38.6667 21.6645 39.1307 21.5418 39.536 21.2965C39.952 21.0511 40.272 20.6938 40.496 20.2245H43.504C43.184 21.4405 42.5493 22.4005 41.6 23.1045C40.6507 23.7978 39.5093 24.1445 38.176 24.1445C37.088 24.1445 36.112 23.9045 35.248 23.4245C34.3947 22.9338 33.728 22.2565 33.248 21.3925C32.768 20.5285 32.528 19.5418 32.528 18.4325ZM48.4155 21.9525H51.9995V24.0645H45.6795V12.8325H48.4155V21.9525ZM56.5405 12.8325V24.0645H53.8045V12.8325H56.5405ZM67.0233 25.9845L65.5833 24.0485C65.1566 24.1338 64.7406 24.1765 64.3353 24.1765C63.2793 24.1765 62.3086 23.9311 61.4233 23.4405C60.5486 22.9498 59.8499 22.2671 59.3273 21.3925C58.8152 20.5071 58.5592 19.5151 58.5592 18.4165C58.5592 17.3178 58.8152 16.3311 59.3273 15.4565C59.8499 14.5818 60.5486 13.8991 61.4233 13.4085C62.3086 12.9178 63.2793 12.6725 64.3353 12.6725C65.3913 12.6725 66.3566 12.9178 67.2313 13.4085C68.1166 13.8991 68.8099 14.5818 69.3113 15.4565C69.8233 16.3311 70.0793 17.3178 70.0793 18.4165C70.0793 19.3765 69.8819 20.2565 69.4873 21.0565C69.1033 21.8458 68.5646 22.5018 67.8713 23.0245L70.3353 25.9845H67.0233ZM61.3593 18.4165C61.3593 19.4085 61.6259 20.2031 62.1593 20.8005C62.7033 21.3871 63.4286 21.6805 64.3353 21.6805C65.2313 21.6805 65.9459 21.3818 66.4792 20.7845C67.0233 20.1871 67.2953 19.3978 67.2953 18.4165C67.2953 17.4245 67.0233 16.6351 66.4792 16.0485C65.9459 15.4511 65.2313 15.1525 64.3353 15.1525C63.4286 15.1525 62.7033 15.4458 62.1593 16.0325C61.6259 16.6191 61.3593 17.4138 61.3593 18.4165ZM74.8206 12.8325V19.5525C74.8206 20.2245 74.986 20.7418 75.3166 21.1045C75.6473 21.4671 76.1326 21.6485 76.7726 21.6485C77.4126 21.6485 77.9033 21.4671 78.2446 21.1045C78.586 20.7418 78.7566 20.2245 78.7566 19.5525V12.8325H81.4926V19.5365C81.4926 20.5391 81.2793 21.3871 80.8526 22.0805C80.426 22.7738 79.85 23.2965 79.1246 23.6485C78.41 24.0005 77.61 24.1765 76.7246 24.1765C75.8393 24.1765 75.0446 24.0058 74.3406 23.6645C73.6473 23.3125 73.098 22.7898 72.6926 22.0965C72.2873 21.3925 72.0846 20.5391 72.0846 19.5365V12.8325H74.8206ZM86.6499 15.0245V17.2965H90.3139V19.4085H86.6499V21.8725H90.7939V24.0645H83.9139V12.8325H90.7939V15.0245H86.6499Z" fill="white"/>
</svg>
