<svg width="59" height="14" viewBox="0 0 59 14" fill="none" xmlns="http://www.w3.org/2000/svg">
<path d="M0.528 6.43245C0.528 5.32312 0.768 4.33645 1.248 3.47245C1.728 2.59779 2.39467 1.92045 3.248 1.44045C4.112 0.949786 5.088 0.704453 6.176 0.704453C7.50933 0.704453 8.65067 1.05645 9.6 1.76045C10.5493 2.46445 11.184 3.42445 11.504 4.64045H8.496C8.272 4.17112 7.952 3.81379 7.536 3.56845C7.13067 3.32312 6.66667 3.20045 6.144 3.20045C5.30133 3.20045 4.61867 3.49379 4.096 4.08045C3.57333 4.66712 3.312 5.45112 3.312 6.43245C3.312 7.41379 3.57333 8.19779 4.096 8.78445C4.61867 9.37112 5.30133 9.66445 6.144 9.66445C6.66667 9.66445 7.13067 9.54179 7.536 9.29645C7.952 9.05112 8.272 8.69379 8.496 8.22445H11.504C11.184 9.44045 10.5493 10.4005 9.6 11.1045C8.65067 11.7978 7.50933 12.1445 6.176 12.1445C5.088 12.1445 4.112 11.9045 3.248 11.4245C2.39467 10.9338 1.728 10.2565 1.248 9.39245C0.768 8.52845 0.528 7.54179 0.528 6.43245ZM16.4155 9.95245H19.9995V12.0645H13.6795V0.832453H16.4155V9.95245ZM24.5405 0.832453V12.0645H21.8045V0.832453H24.5405ZM35.0233 13.9845L33.5833 12.0485C33.1566 12.1338 32.7406 12.1765 32.3353 12.1765C31.2793 12.1765 30.3086 11.9311 29.4233 11.4405C28.5486 10.9498 27.8499 10.2671 27.3273 9.39245C26.8152 8.50712 26.5592 7.51512 26.5592 6.41645C26.5592 5.31779 26.8152 4.33112 27.3273 3.45645C27.8499 2.58179 28.5486 1.89912 29.4233 1.40845C30.3086 0.917786 31.2793 0.672453 32.3353 0.672453C33.3913 0.672453 34.3566 0.917786 35.2313 1.40845C36.1166 1.89912 36.8099 2.58179 37.3113 3.45645C37.8233 4.33112 38.0793 5.31779 38.0793 6.41645C38.0793 7.37645 37.8819 8.25645 37.4873 9.05645C37.1033 9.84579 36.5646 10.5018 35.8713 11.0245L38.3353 13.9845H35.0233ZM29.3593 6.41645C29.3593 7.40845 29.6259 8.20312 30.1593 8.80045C30.7033 9.38712 31.4286 9.68045 32.3353 9.68045C33.2313 9.68045 33.9459 9.38179 34.4792 8.78445C35.0233 8.18712 35.2953 7.39779 35.2953 6.41645C35.2953 5.42445 35.0233 4.63512 34.4792 4.04845C33.9459 3.45112 33.2313 3.15245 32.3353 3.15245C31.4286 3.15245 30.7033 3.44579 30.1593 4.03245C29.6259 4.61912 29.3593 5.41379 29.3593 6.41645ZM42.8206 0.832453V7.55245C42.8206 8.22445 42.986 8.74179 43.3166 9.10445C43.6473 9.46712 44.1326 9.64845 44.7726 9.64845C45.4126 9.64845 45.9033 9.46712 46.2446 9.10445C46.586 8.74179 46.7566 8.22445 46.7566 7.55245V0.832453H49.4926V7.53645C49.4926 8.53912 49.2793 9.38712 48.8526 10.0805C48.426 10.7738 47.85 11.2965 47.1246 11.6485C46.41 12.0005 45.61 12.1765 44.7246 12.1765C43.8393 12.1765 43.0446 12.0058 42.3406 11.6645C41.6473 11.3125 41.098 10.7898 40.6926 10.0965C40.2873 9.39245 40.0846 8.53912 40.0846 7.53645V0.832453H42.8206ZM54.6499 3.02445V5.29645H58.3139V7.40845H54.6499V9.87245H58.7939V12.0645H51.9139V0.832453H58.7939V3.02445H54.6499Z" fill="white"/>
</svg>
