<svg width="355" height="300" viewBox="0 0 355 300" fill="none" xmlns="http://www.w3.org/2000/svg">
<path d="M204.724 230.676C191.399 230.681 178.281 227.387 166.54 221.086C154.799 214.785 144.802 205.674 137.441 194.567C130.08 183.46 125.585 170.703 124.357 157.435C123.128 144.167 125.206 130.802 130.403 118.532C135.6 106.263 143.755 95.4719 154.14 87.123C164.525 78.7742 176.816 73.1276 189.915 70.6874C203.015 68.2473 216.514 69.0897 229.209 73.1394C241.903 77.1891 253.397 84.32 262.663 93.895C264.842 96.149 266.037 99.1755 265.986 102.31C265.934 105.444 264.641 108.43 262.39 110.612C260.139 112.793 257.114 113.992 253.98 113.945C250.846 113.898 247.858 112.609 245.673 110.361C237.777 102.198 227.623 96.579 216.512 94.2247C205.402 91.8704 193.841 92.8878 183.313 97.1467C172.785 101.406 163.768 108.712 157.419 118.129C151.07 127.546 147.678 138.644 147.678 150.001C147.678 161.358 151.07 172.457 157.419 181.874C163.768 191.291 172.785 198.597 183.313 202.856C193.841 207.115 205.402 208.132 216.512 205.778C227.623 203.423 237.777 197.804 245.673 189.641C247.858 187.393 250.846 186.104 253.98 186.057C257.114 186.01 260.139 187.209 262.39 189.391C264.641 191.572 265.934 194.558 265.986 197.693C266.037 200.827 264.842 203.853 262.663 206.107C255.165 213.903 246.166 220.099 236.208 224.322C226.25 228.544 215.54 230.706 204.724 230.676V230.676Z" fill="url(#paint0_linear_2_12)"/>
<path d="M53.6186 266.827C39.3991 266.776 25.7778 261.099 15.7309 251.036C5.6841 240.973 0.0285346 227.343 0 213.124V86.8865C0.000356206 77.4747 2.47814 68.2287 7.1843 60.078C11.8905 51.9272 18.6592 45.1588 26.8102 40.453C34.9611 35.7473 44.2072 33.2699 53.619 33.27C63.0309 33.2701 72.2769 35.7476 80.4278 40.4536L189.752 103.572C197.903 108.278 204.672 115.047 209.378 123.198C214.084 131.349 216.561 140.595 216.561 150.007C216.561 159.419 214.084 168.665 209.378 176.816C204.672 184.967 197.903 191.736 189.752 196.442L80.4278 259.556C72.2884 264.3 63.0396 266.809 53.6186 266.827ZM53.6186 56.8811C45.6736 56.9093 38.0627 60.0811 32.449 65.7034C26.8353 71.3258 23.6753 78.9415 23.6593 86.8865V213.124C23.6591 218.383 25.0433 223.549 27.6726 228.104C30.302 232.658 34.084 236.44 38.6384 239.07C43.1928 241.699 48.3592 243.084 53.6182 243.084C58.8773 243.084 64.0437 241.7 68.5982 239.07L177.922 175.956C182.477 173.325 186.259 169.543 188.888 164.988C191.518 160.433 192.902 155.266 192.902 150.007C192.902 144.748 191.518 139.581 188.888 135.026C186.259 130.471 182.477 126.688 177.922 124.058L68.5982 60.9398C64.0493 58.292 58.882 56.8919 53.6186 56.8811V56.8811Z" fill="url(#paint1_linear_2_12)"/>
<path d="M262.371 110.647C260.112 112.82 257.081 114.007 253.947 113.948C250.812 113.889 247.829 112.588 245.652 110.331C240.354 104.826 233.996 100.451 226.962 97.4692C219.927 94.4873 212.362 92.9606 204.722 92.981C196.253 93.0266 187.899 94.937 180.252 98.5763C172.606 102.216 165.855 107.494 160.479 114.038C152.214 124.201 147.703 136.901 147.703 150C147.703 163.099 152.214 175.799 160.479 185.962L139.895 197.871C129.602 184.033 124.043 167.246 124.043 150C124.043 132.754 129.602 115.967 139.895 102.129C146.838 92.6884 155.76 84.8774 166.035 79.2418C176.31 73.6061 187.692 70.2817 199.385 69.5007C211.079 68.7196 222.801 70.5008 233.735 74.7198C244.668 78.9389 254.549 85.494 262.687 93.9273C264.86 96.1872 266.048 99.2173 265.989 102.352C265.929 105.487 264.628 108.47 262.371 110.647Z" fill="url(#paint2_linear_2_12)"/>
<path d="M354.722 150C354.722 232.728 287.45 300 204.722 300C177.621 300.021 151.022 292.693 127.755 278.798C104.488 264.902 85.424 244.958 72.5912 221.089C59.7583 197.22 53.637 170.317 54.8787 143.245C56.1205 116.173 64.6787 89.9445 79.6427 67.35L100.147 79.1797C87.3068 98.1796 79.8775 120.315 78.6553 143.214C77.4332 166.114 82.4642 188.914 93.2094 209.173C103.955 229.432 120.009 246.386 139.653 258.218C159.297 270.05 181.79 276.314 204.722 276.341C274.359 276.341 331.062 219.637 331.062 150C331.062 80.3623 274.359 23.6594 204.722 23.6594C188.133 23.6509 171.706 26.9212 156.385 33.2823C141.064 39.6433 127.152 48.9697 115.447 60.7252L94.3904 48.5013C108.41 33.206 125.46 20.9951 144.454 12.6452C163.449 4.29527 183.973 -0.0110468 204.722 2.12813e-05C287.45 2.12813e-05 354.722 67.2711 354.722 150Z" fill="url(#paint3_linear_2_12)"/>
<defs>
<linearGradient id="paint0_linear_2_12" x1="273.511" y1="100.606" x2="138.526" y2="197.567" gradientUnits="userSpaceOnUse">
<stop stop-color="#FF0096"/>
<stop offset="0.31285" stop-color="#950058"/>
<stop offset="0.68715" stop-color="#AB14B3"/>
<stop offset="1" stop-color="#671787"/>
</linearGradient>
<linearGradient id="paint1_linear_2_12" x1="17.3506" y1="40.1943" x2="138.892" y2="229.157" gradientUnits="userSpaceOnUse">
<stop stop-color="#671787"/>
<stop offset="0.31285" stop-color="#AB14B3"/>
<stop offset="0.68715" stop-color="#950058"/>
<stop offset="1" stop-color="#FF0096"/>
</linearGradient>
<linearGradient id="paint2_linear_2_12" x1="208.992" y1="58.7636" x2="177.392" y2="202.425" gradientUnits="userSpaceOnUse">
<stop stop-color="#FF0096"/>
<stop offset="0.31285" stop-color="#950058"/>
<stop offset="0.68715" stop-color="#AB14B3"/>
<stop offset="1" stop-color="#671787"/>
</linearGradient>
<linearGradient id="paint3_linear_2_12" x1="88.9751" y1="52.9395" x2="316.485" y2="243.693" gradientUnits="userSpaceOnUse">
<stop stop-color="#FF0096"/>
<stop offset="0.31285" stop-color="#950058"/>
<stop offset="0.68715" stop-color="#AB14B3"/>
<stop offset="1" stop-color="#671787"/>
</linearGradient>
</defs>
</svg>
