<svg width="88" height="145" viewBox="0 0 88 145" fill="none" xmlns="http://www.w3.org/2000/svg">
<path fill-rule="evenodd" clip-rule="evenodd" d="M28.5266 0.262343C38.0923 1.1106 47.3285 3.99805 55.6389 8.68836C58.6055 10.3626 61.454 12.2666 64.1576 14.3896L45.3113 38.7472C39.6947 34.3367 32.9325 31.6556 25.8386 31.0265C18.7448 30.3975 11.6216 31.8473 5.32658 35.2015C-0.968441 38.5557 -6.16702 43.6713 -9.64338 49.9326C-13.1197 56.1939 -14.7257 63.3339 -14.268 70.4932C-13.8103 77.6525 -11.3084 84.526 -7.06347 90.2863C-2.81853 96.0465 2.9885 100.448 9.65863 102.961C16.3288 105.474 23.5777 105.991 30.5328 104.451C34.9387 103.475 39.1078 101.699 42.8453 99.2324C45.0077 97.8052 47.0257 96.1464 48.8615 94.2772L81.6392 134.666C81.6326 134.668 81.625 134.67 81.6164 134.673C81.6258 134.671 81.6339 134.669 81.6408 134.668L88 142.504C87.6337 142.877 87.2356 143.203 86.8082 143.485C84.2615 145.168 80.6716 145.304 76.5265 144.597C71.5065 143.741 65.672 141.65 59.8895 139.577C51.2019 136.463 42.6314 133.392 37.1161 134.613C24.3896 137.432 11.1255 136.486 -1.0794 131.888C-13.2844 127.289 -23.91 119.235 -31.6774 108.695C-39.4447 98.1553 -44.0227 85.5783 -44.8602 72.4782C-45.6977 59.3781 -42.7591 46.3134 -36.3981 34.8566C-30.0371 23.3998 -20.5247 14.0392 -9.00615 7.90171C2.51244 1.76419 15.5463 -0.88871 28.5266 0.262343ZM27.6325 10.4963C35.2328 11.1703 42.5881 13.3603 49.2838 16.902L42.8514 25.2154C37.8072 22.7979 32.3515 21.2908 26.7328 20.7925C17.6808 19.9898 8.59134 21.8399 0.558655 26.12C-7.47403 30.4001 -14.1076 36.9278 -18.5436 44.9174C-22.9796 52.907 -25.0289 62.018 -24.4448 71.1535C-23.8607 80.2891 -20.6682 89.0599 -15.2515 96.4102C-9.83481 103.761 -2.42482 109.377 6.08652 112.584C14.5979 115.79 23.8478 116.45 32.7228 114.485C37.8964 113.338 42.8142 111.329 47.2823 108.562L65.1241 130.547C64.6216 130.367 64.1102 130.184 63.5917 129.998C59.8292 128.649 55.6985 127.169 51.9444 126.09C47.2044 124.727 40.8185 123.274 34.9261 124.579C24.1195 126.973 12.8564 126.169 2.4927 122.265C-7.87103 118.36 -16.8937 111.521 -23.4893 102.571C-30.0849 93.6214 -33.9722 82.9417 -34.6834 71.8179C-35.3946 60.694 -32.8993 49.6002 -27.4979 39.8717C-22.0965 30.1433 -14.0192 22.1949 -4.23823 16.9832C5.54268 11.7716 16.6103 9.51893 27.6325 10.4963Z" fill="white" fill-opacity="0.5"/>
<path d="M37.5625 67.8177L10.1574 51.8778V83.7575L37.5625 67.8177Z" fill="white" fill-opacity="0.5"/>
</svg>
