<svg width="445" height="430" viewBox="0 0 445 430" fill="none" xmlns="http://www.w3.org/2000/svg">
<path fill-rule="evenodd" clip-rule="evenodd" d="M11.5881 0C5.18815 0 0 5.18812 0 11.588V424.842L9.84986 429.917L23.7555 420.067L40.5582 429.917L57.3609 420.067L77.64 429.917L93.8632 420.067L110.666 429.917L128.048 420.067L145.43 429.917L165.13 420.067L181.353 429.917L199.314 420.067L215.538 429.917L231.182 420.067L255.517 429.917L272.319 420.067L293.178 429.917L309.401 420.067L334.315 429.917L349.38 420.067L368.5 429.917L381.826 420.067L400.947 429.917L414.852 420.067L433.973 429.917L444.981 424.718V11.5881C444.981 5.18815 439.793 0 433.393 0H11.5881Z" fill="#232323"/>
<g opacity="0.4">
<path fill-rule="evenodd" clip-rule="evenodd" d="M202.965 68.427C218.572 69.8076 233.641 74.5072 247.2 82.1411C252.04 84.8661 256.688 87.965 261.099 91.4204L230.35 131.064C221.186 123.886 210.153 119.522 198.579 118.498C187.005 117.474 175.383 119.834 165.112 125.293C154.841 130.753 146.359 139.079 140.687 149.27C135.015 159.46 132.395 171.081 133.142 182.734C133.888 194.386 137.971 205.573 144.896 214.949C151.822 224.324 161.297 231.488 172.18 235.578C183.063 239.668 194.89 240.51 206.238 238.002C213.426 236.414 220.229 233.524 226.326 229.509C229.855 227.186 233.147 224.487 236.142 221.444L289.622 287.18C289.611 287.184 289.599 287.188 289.585 287.192C289.6 287.189 289.613 287.186 289.624 287.183L300 299.937C299.402 300.544 298.753 301.075 298.056 301.535C293.9 304.274 288.043 304.494 281.28 303.344C273.089 301.951 263.57 298.547 254.135 295.174C239.961 290.106 225.978 285.106 216.979 287.095C196.215 291.683 174.573 290.142 154.66 282.658C134.747 275.174 117.41 262.066 104.737 244.911C92.0639 227.756 84.5946 207.286 83.2281 185.965C81.8616 164.643 86.6562 143.379 97.0347 124.732C107.413 106.085 122.933 90.85 141.727 80.8607C160.52 70.8714 181.786 66.5535 202.965 68.427ZM201.506 85.0837C213.906 86.1806 225.907 89.7451 236.831 95.5094L226.336 109.04C218.106 105.106 209.205 102.653 200.038 101.842C185.269 100.535 170.439 103.546 157.333 110.513C144.227 117.479 133.403 128.103 126.166 141.107C118.928 154.111 115.584 168.94 116.537 183.809C117.49 198.677 122.699 212.953 131.537 224.916C140.375 236.879 152.465 246.021 166.352 251.24C180.239 256.459 195.331 257.533 209.811 254.333C218.252 252.468 226.276 249.197 233.566 244.694L262.676 280.476C261.856 280.184 261.022 279.886 260.176 279.583C254.037 277.388 247.298 274.978 241.172 273.222C233.439 271.005 223.02 268.639 213.406 270.764C195.774 274.66 177.397 273.352 160.488 266.997C143.579 260.642 128.858 249.511 118.096 234.944C107.335 220.377 100.993 202.995 99.8323 184.89C98.672 166.785 102.743 148.729 111.556 132.895C120.369 117.061 133.548 104.124 149.506 95.6417C165.464 87.1593 183.522 83.4929 201.506 85.0837Z" fill="black" fill-opacity="0.1"/>
<path d="M217.707 178.379L172.994 152.436V204.323L217.707 178.379Z" fill="black" fill-opacity="0.1"/>
</g>
</svg>
